<svg width="576" height="200" viewBox="0 0 576 200" fill="none" xmlns="http://www.w3.org/2000/svg">
<path d="M575.687 116.427C575.687 128.843 573.824 140.172 570.1 150.415C566.375 160.658 561.099 169.504 554.27 176.953C547.442 184.248 539.217 189.912 529.595 193.947C519.973 197.982 509.265 200 497.47 200C485.831 200 475.2 197.982 465.578 193.947C455.956 189.912 447.731 184.248 440.903 176.953C434.23 169.659 429.031 160.968 425.306 150.881C421.582 140.638 419.719 129.309 419.719 116.893C419.719 104.477 421.582 93.1482 425.306 82.9053C429.031 72.6625 434.307 63.894 441.136 56.5998C447.964 49.1504 456.189 43.4082 465.811 39.3732C475.433 35.3381 486.141 33.3206 497.936 33.3206C509.73 33.3206 520.361 35.3381 529.828 39.3732C539.45 43.4082 547.597 49.0728 554.27 56.367C561.099 63.6612 566.375 72.4297 570.1 82.6726C573.824 92.7602 575.687 104.012 575.687 116.427ZM528.198 116.66C528.198 102.072 525.56 90.5875 520.283 82.207C515.007 73.6712 507.48 69.4034 497.703 69.4034C487.926 69.4034 480.399 73.6712 475.123 82.207C469.846 90.5875 467.208 102.072 467.208 116.66C467.208 131.249 469.846 142.811 475.123 151.346C480.399 159.727 487.926 163.917 497.703 163.917C507.48 163.917 515.007 159.727 520.283 151.346C525.56 142.811 528.198 131.249 528.198 116.66Z" fill="#5542F6"/>
<path d="M409.641 146.457C409.641 155.924 408.012 163.994 404.753 170.667C401.494 177.341 397.148 182.773 391.716 186.963C386.285 191.153 379.844 194.18 372.395 196.042C365.101 197.904 357.419 198.835 349.349 198.835C337.555 198.835 326.769 197.749 316.992 195.576C307.215 193.248 297.67 190.067 288.359 186.032L295.342 147.155C304.809 151.811 314.276 155.536 323.743 158.329C333.209 161.123 341.978 162.52 350.048 162.52C354.703 162.52 358.428 161.744 361.221 160.192C364.015 158.485 365.411 155.846 365.411 152.277C365.411 150.57 365.101 149.095 364.48 147.854C363.86 146.457 362.618 145.138 360.756 143.896C358.893 142.5 356.255 141.103 352.841 139.706C349.427 138.154 345.004 136.447 339.572 134.585C331.347 131.636 324.208 128.687 318.156 125.739C312.258 122.79 307.292 119.376 303.257 115.496C299.377 111.616 296.506 107.193 294.644 102.226C292.782 97.105 291.851 91.0524 291.851 84.0687C291.851 75.8433 293.325 68.6268 296.274 62.419C299.377 56.2112 303.49 51.0897 308.611 47.0547C313.888 42.8644 320.018 39.7605 327.002 37.743C333.985 35.5702 341.434 34.4839 349.349 34.4839C355.091 34.4839 360.368 34.7167 365.179 35.1823C369.99 35.6478 374.49 36.4238 378.68 37.5102C383.026 38.4414 387.061 39.6053 390.785 41.0021C394.665 42.3988 398.622 44.0284 402.657 45.8907L395.674 84.5343C387.293 80.0336 379.146 76.6193 371.231 74.2914C363.316 71.9635 356.333 70.7995 350.28 70.7995C340.814 70.7995 336.08 73.7482 336.08 79.6456C336.08 81.1976 336.313 82.5943 336.779 83.8359C337.399 85.0774 338.486 86.319 340.038 87.5605C341.745 88.6469 343.995 89.8109 346.789 91.0524C349.737 92.294 353.462 93.6908 357.962 95.2427C367.119 98.3466 374.956 101.528 381.474 104.787C387.992 107.891 393.346 111.461 397.536 115.496C401.726 119.531 404.753 124.109 406.615 129.23C408.632 134.197 409.641 139.939 409.641 146.457Z" fill="#5542F6"/>
<path d="M267.529 196.971H219.808V36.3445H267.529V196.971Z" fill="#5542F6"/>
<path fill-rule="evenodd" clip-rule="evenodd" d="M18.2997 98.2989C18.1793 98.2001 18.1191 98.1507 18.0691 98.1486C18.0195 98.1464 17.9724 98.1687 17.9426 98.2084C17.9126 98.2484 17.9126 98.3258 17.9126 98.4807V196.973H65.6638V120.489C48.9902 117.22 32.652 110.072 18.2997 98.2989ZM143.26 108.731V196.974H191.011V63.3113C191.011 63.053 191.011 62.9238 190.971 62.8806C190.932 62.838 190.872 62.8221 190.816 62.8395C190.76 62.8571 190.696 62.9698 190.567 63.1954C178.971 83.469 162.09 98.7607 143.26 108.731Z" fill="#5542F6"/>
<path fill-rule="evenodd" clip-rule="evenodd" d="M114.768 108.428C77.2261 118.254 31.3626 108.261 4.13347 66.4083L31.2351 44.2752C46.6198 67.9221 75.4053 77.2173 104.538 69.5927C133.484 62.017 156.48 39.1777 160.588 7.95121L194.811 16.9783C188.203 67.2049 152.497 98.5539 114.768 108.428Z" fill="#5542F6"/>
</svg>
